<?xml version="1.0" standalone="no"?>
<!DOCTYPE svg PUBLIC "-//W3C//DTD SVG 20010904//EN"
 "http://www.w3.org/TR/2001/REC-SVG-20010904/DTD/svg10.dtd">
<svg version="1.0" xmlns="http://www.w3.org/2000/svg"
 width="512.000000pt" height="512.000000pt" viewBox="0 0 512.000000 512.000000"
 preserveAspectRatio="xMidYMid meet">
<metadata>
Created by potrace 1.14, written by Peter Selinger 2001-2017
</metadata>
<g transform="translate(0.000000,512.000000) scale(0.100000,-0.100000)"
fill="#000000" stroke="none">
<path d="M0 2560 l0 -2560 2560 0 2560 0 0 2560 0 2560 -2560 0 -2560 0 0
-2560z m2730 2354 c30 -9 73 -25 95 -36 98 -48 1631 -927 1673 -958 102 -77
190 -218 217 -348 22 -101 22 -1925 0 -2026 -31 -147 -124 -283 -252 -369
-111 -74 -1624 -932 -1683 -954 -135 -50 -272 -52 -409 -7 -51 17 -330 170
-895 492 -796 453 -823 469 -896 542 -86 85 -140 178 -165 281 -22 96 -22
1962 0 2058 25 103 79 196 165 281 73 73 103 90 905 546 457 260 854 480 883
489 118 38 254 41 362 9z"/>
<path d="M2467 4649 c-31 -5 -83 -19 -115 -31 -31 -13 -372 -203 -757 -422
-682 -388 -702 -401 -776 -475 -80 -81 -127 -161 -154 -261 -22 -82 -22 -1718
0 -1800 35 -134 133 -269 250 -346 78 -51 1333 -764 1401 -796 134 -63 294
-72 434 -25 41 14 342 179 776 427 667 381 713 409 779 475 79 78 133 171 159
271 23 90 24 1699 1 1787 -26 101 -81 196 -159 272 -66 66 -117 97 -767 468
-383 218 -717 406 -744 418 -52 23 -180 49 -235 47 -19 0 -61 -4 -93 -9z m877
-1065 c309 -163 567 -303 574 -312 9 -12 12 -157 12 -644 0 -585 -1 -629 -18
-645 -33 -34 -259 -153 -289 -153 -65 0 -63 -26 -65 635 l-3 599 -535 283
c-380 200 -539 289 -550 307 -28 49 -7 73 130 152 71 41 138 72 154 73 21 1
201 -90 590 -295z"/>
</g>
</svg>
